<svg aria-hidden="true" style="position: absolute; width: 0; height: 0; overflow: hidden;" version="1.1" xmlns="http://www.w3.org/2000/svg" xmlns:xlink="http://www.w3.org/1999/xlink">
<defs>
<symbol id="icon-search" viewBox="0 0 12 12">
<path d="M5.5 9.5C7.70914 9.5 9.5 7.70914 9.5 5.5C9.5 3.29086 7.70914 1.5 5.5 1.5C3.29086 1.5 1.5 3.29086 1.5 5.5C1.5 7.70914 3.29086 9.5 5.5 9.5Z" stroke="white" stroke-linecap="round" stroke-linejoin="round"/>
<path d="M10.5 10.5002L8.32501 8.3252" stroke="white" stroke-linecap="round" stroke-linejoin="round"/>
</symbol>
<symbol id="icon-film" viewBox="0 0 24 24">
<path d="M19.82 2H4.18C2.97602 2 2 2.97602 2 4.18V19.82C2 21.024 2.97602 22 4.18 22H19.82C21.024 22 22 21.024 22 19.82V4.18C22 2.97602 21.024 2 19.82 2Z" stroke="#818181" stroke-width="2" stroke-linecap="round" stroke-linejoin="round"/>
<path d="M7 2V22" stroke="#818181" stroke-width="2" stroke-linecap="round" stroke-linejoin="round"/>
<path d="M17 2V22" stroke="#818181" stroke-width="2" stroke-linecap="round" stroke-linejoin="round"/>
<path d="M2 12H22" stroke="#818181" stroke-width="2" stroke-linecap="round" stroke-linejoin="round"/>
<path d="M2 7H7" stroke="#818181" stroke-width="2" stroke-linecap="round" stroke-linejoin="round"/>
<path d="M2 17H7" stroke="#818181" stroke-width="2" stroke-linecap="round" stroke-linejoin="round"/>
<path d="M17 17H22" stroke="#818181" stroke-width="2" stroke-linecap="round" stroke-linejoin="round"/>
<path d="M17 7H22" stroke="#818181" stroke-width="2" stroke-linecap="round" stroke-linejoin="round"/>
</symbol>
<symbol id="icon-love" viewBox="0 0 34 32">
<path d="M17.231 31.705l-2.412-2.412c-8.96-7.926-14.818-13.268-14.818-19.815 0-5.342 4.135-9.477 9.477-9.477 2.929 0 5.858 1.378 7.754 3.618 1.895-2.24 4.825-3.618 7.754-3.618 5.342 0 9.477 4.135 9.477 9.477 0 6.548-5.858 11.889-14.818 19.815l-2.412 2.412z"></path>
</symbol>

<symbol id="cross" viewBox="0 0 32 32">
<path d="M31.708 25.708c-0-0-0-0-0-0l-9.708-9.708 9.708-9.708c0-0 0-0 0-0 0.105-0.105 0.18-0.227 0.229-0.357 0.133-0.356 0.057-0.771-0.229-1.057l-4.586-4.586c-0.286-0.286-0.702-0.361-1.057-0.229-0.13 0.048-0.252 0.124-0.357 0.228 0 0-0 0-0 0l-9.708 9.708-9.708-9.708c-0-0-0-0-0-0-0.105-0.104-0.227-0.18-0.357-0.228-0.356-0.133-0.771-0.057-1.057 0.229l-4.586 4.586c-0.286 0.286-0.361 0.702-0.229 1.057 0.049 0.13 0.124 0.252 0.229 0.357 0 0 0 0 0 0l9.708 9.708-9.708 9.708c-0 0-0 0-0 0-0.104 0.105-0.18 0.227-0.229 0.357-0.133 0.355-0.057 0.771 0.229 1.057l4.586 4.586c0.286 0.286 0.702 0.361 1.057 0.229 0.13-0.049 0.252-0.124 0.357-0.229 0-0 0-0 0-0l9.708-9.708 9.708 9.708c0 0 0 0 0 0 0.105 0.105 0.227 0.18 0.357 0.229 0.356 0.133 0.771 0.057 1.057-0.229l4.586-4.586c0.286-0.286 0.362-0.702 0.229-1.057-0.049-0.13-0.124-0.252-0.229-0.357z"></path>
</symbol>
<symbol id="icon-sun" viewBox="0 0 32 32">
<path fill="#fcdd66" style="fill: var(--color3, #fcdd66)" d="M8.775 16l-5.401 2.878 6.113 0.258-3.61 4.939 5.618-2.423-1.115 6.016 4.008-4.622 1.612 5.901 1.612-5.901 4.008 4.622-1.115-6.016 5.618 2.423-3.611-4.939 6.113-0.257-5.401-2.878 5.401-2.878-6.113-0.258 3.611-4.939-5.618 2.424 1.115-6.016-4.008 4.622-1.612-5.901-1.612 5.901-4.008-4.622 1.115 6.016-5.618-2.423 3.61 4.939-6.112 0.258z"></path>
<path fill="#fcdd66" style="fill: var(--color3, #fcdd66)" d="M16 32l-1.991-7.289-4.959 5.719 1.379-7.442-6.944 2.995 4.464-6.106-7.561-0.319 6.676-3.558-6.676-3.558 7.56-0.318-4.463-6.106 6.944 2.995-1.379-7.443 4.959 5.719 1.991-7.289 1.991 7.289 4.959-5.719-1.379 7.443 6.944-2.995-4.464 6.106 7.561 0.319-6.676 3.558 6.676 3.558-7.561 0.318 4.464 6.106-6.944-2.995 1.379 7.442-4.959-5.719-1.991 7.289zM14.767 21.38l1.233 4.514 1.233-4.514 3.057 3.526-0.85-4.59 4.293 1.852-2.757-3.772 4.665-0.197-4.126-2.199 4.126-2.199-4.665-0.197 2.757-3.772-4.293 1.852 0.85-4.59-3.057 3.526-1.233-4.514-1.233 4.514-3.057-3.525 0.85 4.59-4.293-1.852 2.757 3.772-4.664 0.197 4.126 2.199-4.126 2.199 4.665 0.197-2.757 3.772 4.293-1.852-0.85 4.59 3.057-3.526z"></path>
<path fill="#fbd009" style="fill: var(--color4, #fbd009)" d="M10.012 16l-4.734 2.444 5.324 0.155-3.199 4.259 4.863-2.173-1.038 5.224 3.436-4.069 1.336 5.155 1.336-5.155 3.437 4.069-1.039-5.224 4.863 2.173-3.199-4.258 5.324-0.155-4.734-2.444 4.734-2.444-5.324-0.155 3.199-4.258-4.863 2.173 1.038-5.224-3.436 4.069-1.336-5.155-1.336 5.155-3.436-4.069 1.039 5.224-4.863-2.173 3.199 4.258-5.324 0.155z"></path>
<path fill="#fbd009" style="fill: var(--color4, #fbd009)" d="M16 27.351l-1.38-5.322-3.548 4.202 1.072-5.395-5.021 2.244 3.303-4.397-5.497-0.16 4.887-2.524-4.887-2.523 5.497-0.16-3.303-4.397 5.021 2.244-1.072-5.395 3.548 4.202 1.38-5.322 1.379 5.322 3.548-4.202-1.072 5.395 5.021-2.244-3.303 4.397 5.497 0.16-4.888 2.524 4.888 2.524-5.497 0.16 3.303 4.397-5.021-2.244 1.073 5.395-3.548-4.202-1.38 5.322zM14.707 21.65l1.293 4.989 1.293-4.989 3.324 3.936-1.005-5.054 4.705 2.103-3.095-4.12 5.151-0.15-4.58-2.365 4.58-2.365-5.151-0.15 3.095-4.12-4.705 2.103 1.005-5.054-3.324 3.937-1.293-4.989-1.293 4.989-3.324-3.936 1.005 5.054-4.705-2.103 3.095 4.12-5.15 0.15 4.58 2.365-4.58 2.365 5.15 0.15-3.095 4.12 4.705-2.103-1.005 5.054 3.324-3.937z"></path>
<path fill="#fcdd66" style="fill: var(--color3, #fcdd66)" d="M21.744 16c0 3.172-2.572 5.744-5.744 5.744s-5.744-2.572-5.744-5.744c0-3.172 2.572-5.744 5.744-5.744s5.744 2.572 5.744 5.744z"></path>
</symbol>

<symbol id="icon-moon" viewBox="0 0 32 32">
<path fill="#ffde55" style="fill: var(--color1, #ffde55)" d="M28.087 14.728l2.87-3.178-4.19-0.884-2.136-3.711v10.284l3.909 1.747z"></path>
<path fill="#ffeb99" style="fill: var(--color2, #ffeb99)" d="M22.496 10.665l-4.19 0.884 2.87 3.178-0.454 4.258 3.909-1.747v-10.284z"></path>
<path fill="#ffeb99" style="fill: var(--color2, #ffeb99)" d="M18.653 29.655c-5.863-1.463-10.344-7.028-10.344-13.655s4.481-12.192 10.344-13.655c1.952-0.487 3.872-0.529 5.655-0.199-2.354-1.362-5.084-2.146-7.999-2.146-8.837 0-16 7.163-16 16s7.163 16 16 16c2.915 0 5.646-0.784 7.999-2.146-1.784 0.33-3.704 0.288-5.655-0.199z"></path>
<path fill="#ffde55" style="fill: var(--color1, #ffde55)" d="M16.309 16c0-5.921 3.219-11.088 7.999-13.854-1.784-0.33-3.704-0.288-5.655 0.199-5.863 1.463-10.344 7.028-10.344 13.655s4.481 12.192 10.344 13.655c1.952 0.487 3.872 0.529 5.655 0.199-4.781-2.767-7.999-7.933-7.999-13.854z"></path>
<path fill="#ffde55" style="fill: var(--color1, #ffde55)" d="M31.691 22.147l-2.083-0.44-1.062-1.846 0 5.114 1.944 0.869-0.226-2.117z"></path>
<path fill="#ffeb99" style="fill: var(--color2, #ffeb99)" d="M27.484 21.707l-2.083 0.44 1.427 1.58-0.226 2.117 1.944-0.869-0-5.114z"></path>
</symbol>

  <symbol id="icon-Vector" viewBox="0 0 32 32">
    <path fill="#487996" style="fill: var(--color1, #487996)" d="M18.41 16l12.462-12.461c0.28-0.327 0.426-0.748 0.41-1.178s-0.195-0.838-0.499-1.143c-0.305-0.304-0.712-0.483-1.143-0.499s-0.851 0.13-1.178 0.41l-12.462 12.462-12.462-12.479c-0.327-0.28-0.748-0.426-1.178-0.41s-0.838 0.195-1.143 0.499c-0.304 0.304-0.483 0.713-0.499 1.143s0.13 0.851 0.41 1.178l12.462 12.479-12.479 12.462c-0.179 0.153-0.324 0.342-0.427 0.554s-0.16 0.443-0.169 0.679c-0.009 0.235 0.031 0.47 0.117 0.689s0.216 0.419 0.383 0.585c0.167 0.167 0.366 0.297 0.585 0.383s0.454 0.126 0.69 0.117 0.466-0.067 0.679-0.169c0.212-0.103 0.401-0.248 0.554-0.427l12.479-12.462 12.462 12.462c0.327 0.28 0.748 0.426 1.178 0.41s0.838-0.195 1.143-0.499c0.305-0.304 0.483-0.712 0.499-1.143s-0.13-0.851-0.41-1.178l-12.462-12.462z"></path>
  </symbol>

</defs>
</svg>
